<mxfile host="app.diagrams.net" agent="Mozilla/5.0 (X11; Ubuntu; Linux x86_64; rv:129.0) Gecko/20100101 Firefox/129.0" version="25.0.3">
  <diagram name="Page-1" id="2YBvvXClWsGukQMizWep">
    <mxGraphModel dx="1570" dy="416" grid="1" gridSize="3" guides="1" tooltips="1" connect="0" arrows="0" fold="1" page="1" pageScale="1" pageWidth="850" pageHeight="1100" math="0" shadow="0">
      <root>
        <mxCell id="0" />
        <mxCell id="1" parent="0" />
        <mxCell id="aM9ryv3xv72pqoxQDRHE-5" value=":Coin1" style="shape=umlLifeline;perimeter=lifelinePerimeter;whiteSpace=wrap;html=1;container=0;dropTarget=0;collapsible=0;recursiveResize=0;outlineConnect=0;portConstraint=eastwest;newEdgeStyle={&quot;edgeStyle&quot;:&quot;elbowEdgeStyle&quot;,&quot;elbow&quot;:&quot;vertical&quot;,&quot;curved&quot;:0,&quot;rounded&quot;:0};" parent="1" vertex="1">
          <mxGeometry x="220" y="24" width="100" height="192" as="geometry" />
        </mxCell>
        <mxCell id="aM9ryv3xv72pqoxQDRHE-6" value="" style="html=1;points=[];perimeter=orthogonalPerimeter;outlineConnect=0;targetShapes=umlLifeline;portConstraint=eastwest;newEdgeStyle={&quot;edgeStyle&quot;:&quot;elbowEdgeStyle&quot;,&quot;elbow&quot;:&quot;vertical&quot;,&quot;curved&quot;:0,&quot;rounded&quot;:0};" parent="aM9ryv3xv72pqoxQDRHE-5" vertex="1">
          <mxGeometry x="45" y="93" width="10" height="15" as="geometry" />
        </mxCell>
        <mxCell id="aM9ryv3xv72pqoxQDRHE-8" value="" style="html=1;verticalAlign=bottom;endArrow=open;dashed=1;endSize=8;edgeStyle=elbowEdgeStyle;elbow=vertical;curved=0;rounded=0;" parent="1" edge="1" target="LkRkzfqUn0xp6KLSCfG--22">
          <mxGeometry y="-40" relative="1" as="geometry">
            <mxPoint x="95" y="130" as="targetPoint" />
            <Array as="points">
              <mxPoint x="190" y="130" />
            </Array>
            <mxPoint x="265" y="130" as="sourcePoint" />
            <mxPoint as="offset" />
          </mxGeometry>
        </mxCell>
        <mxCell id="35sZNrAvf399EntNXnfX-1" value="&lt;div&gt;:Coin2&lt;/div&gt;" style="shape=umlLifeline;perimeter=lifelinePerimeter;whiteSpace=wrap;html=1;container=0;dropTarget=0;collapsible=0;recursiveResize=0;outlineConnect=0;portConstraint=eastwest;newEdgeStyle={&quot;edgeStyle&quot;:&quot;elbowEdgeStyle&quot;,&quot;elbow&quot;:&quot;vertical&quot;,&quot;curved&quot;:0,&quot;rounded&quot;:0};" parent="1" vertex="1">
          <mxGeometry x="342" y="24" width="100" height="192" as="geometry" />
        </mxCell>
        <mxCell id="35sZNrAvf399EntNXnfX-2" value="" style="html=1;points=[];perimeter=orthogonalPerimeter;outlineConnect=0;targetShapes=umlLifeline;portConstraint=eastwest;newEdgeStyle={&quot;edgeStyle&quot;:&quot;elbowEdgeStyle&quot;,&quot;elbow&quot;:&quot;vertical&quot;,&quot;curved&quot;:0,&quot;rounded&quot;:0};" parent="35sZNrAvf399EntNXnfX-1" vertex="1">
          <mxGeometry x="45" y="123" width="10" height="18" as="geometry" />
        </mxCell>
        <mxCell id="LkRkzfqUn0xp6KLSCfG--4" value="&lt;font style=&quot;font-size: 8px;&quot;&gt;approve(userAdress, lPoolAdr, coin2Amount)&lt;/font&gt;" style="text;whiteSpace=wrap;html=1;" vertex="1" parent="1">
          <mxGeometry x="108" y="125" width="170" height="40" as="geometry" />
        </mxCell>
        <mxCell id="LkRkzfqUn0xp6KLSCfG--5" value="" style="endArrow=classic;html=1;rounded=0;" edge="1" parent="1" source="LkRkzfqUn0xp6KLSCfG--4">
          <mxGeometry width="50" height="50" relative="1" as="geometry">
            <mxPoint x="228" y="182" as="sourcePoint" />
            <mxPoint x="278" y="132" as="targetPoint" />
          </mxGeometry>
        </mxCell>
        <mxCell id="LkRkzfqUn0xp6KLSCfG--9" value="" style="html=1;verticalAlign=bottom;endArrow=block;edgeStyle=elbowEdgeStyle;elbow=vertical;curved=0;rounded=0;" edge="1" parent="1" source="LkRkzfqUn0xp6KLSCfG--22" target="35sZNrAvf399EntNXnfX-2">
          <mxGeometry x="1" y="-50" relative="1" as="geometry">
            <mxPoint x="96" y="150" as="sourcePoint" />
            <Array as="points">
              <mxPoint x="181" y="150" />
            </Array>
            <mxPoint x="47" y="-32" as="offset" />
            <mxPoint x="330" y="156" as="targetPoint" />
          </mxGeometry>
        </mxCell>
        <mxCell id="LkRkzfqUn0xp6KLSCfG--10" value="" style="html=1;verticalAlign=bottom;endArrow=open;dashed=1;endSize=8;edgeStyle=elbowEdgeStyle;elbow=vertical;curved=0;rounded=0;" edge="1" parent="1" target="LkRkzfqUn0xp6KLSCfG--22">
          <mxGeometry y="-40" relative="1" as="geometry">
            <mxPoint x="95" y="162" as="targetPoint" />
            <Array as="points">
              <mxPoint x="311" y="162" />
            </Array>
            <mxPoint x="386" y="162" as="sourcePoint" />
            <mxPoint as="offset" />
          </mxGeometry>
        </mxCell>
        <mxCell id="LkRkzfqUn0xp6KLSCfG--15" value="&lt;font style=&quot;font-size: 8px;&quot;&gt;approve(userAdress, lPoolAdr, coin1Amount)&lt;/font&gt;" style="html=1;verticalAlign=bottom;endArrow=block;edgeStyle=elbowEdgeStyle;elbow=vertical;curved=0;rounded=0;" edge="1" parent="1" source="LkRkzfqUn0xp6KLSCfG--22">
          <mxGeometry relative="1" as="geometry">
            <mxPoint x="95" y="120.00000000000006" as="sourcePoint" />
            <Array as="points">
              <mxPoint x="180" y="120" />
            </Array>
            <mxPoint as="offset" />
            <mxPoint x="265" y="120" as="targetPoint" />
          </mxGeometry>
        </mxCell>
        <mxCell id="LkRkzfqUn0xp6KLSCfG--16" value="" style="html=1;verticalAlign=bottom;startArrow=oval;endArrow=block;startSize=8;edgeStyle=elbowEdgeStyle;elbow=vertical;curved=0;rounded=0;" edge="1" parent="1">
          <mxGeometry relative="1" as="geometry">
            <mxPoint x="-174" y="110" as="sourcePoint" />
            <mxPoint x="60" y="110" as="targetPoint" />
          </mxGeometry>
        </mxCell>
        <mxCell id="LkRkzfqUn0xp6KLSCfG--20" value="&lt;font style=&quot;font-size: 9px;&quot;&gt;approveAddLiquidity(coin1Amount, coin2Amount)&lt;/font&gt;" style="edgeLabel;html=1;align=center;verticalAlign=middle;resizable=0;points=[];" vertex="1" connectable="0" parent="LkRkzfqUn0xp6KLSCfG--16">
          <mxGeometry x="-0.7712" y="-1" relative="1" as="geometry">
            <mxPoint x="81" y="-15" as="offset" />
          </mxGeometry>
        </mxCell>
        <mxCell id="LkRkzfqUn0xp6KLSCfG--21" value=":TradingClass" style="shape=umlLifeline;perimeter=lifelinePerimeter;whiteSpace=wrap;html=1;container=0;dropTarget=0;collapsible=0;recursiveResize=0;outlineConnect=0;portConstraint=eastwest;newEdgeStyle={&quot;edgeStyle&quot;:&quot;elbowEdgeStyle&quot;,&quot;elbow&quot;:&quot;vertical&quot;,&quot;curved&quot;:0,&quot;rounded&quot;:0};" vertex="1" parent="1">
          <mxGeometry x="15" y="24" width="100" height="192" as="geometry" />
        </mxCell>
        <mxCell id="LkRkzfqUn0xp6KLSCfG--22" value="" style="html=1;points=[];perimeter=orthogonalPerimeter;outlineConnect=0;targetShapes=umlLifeline;portConstraint=eastwest;newEdgeStyle={&quot;edgeStyle&quot;:&quot;elbowEdgeStyle&quot;,&quot;elbow&quot;:&quot;vertical&quot;,&quot;curved&quot;:0,&quot;rounded&quot;:0};" vertex="1" parent="LkRkzfqUn0xp6KLSCfG--21">
          <mxGeometry x="45" y="80" width="10" height="61" as="geometry" />
        </mxCell>
      </root>
    </mxGraphModel>
  </diagram>
</mxfile>
